<?xml version="1.0" standalone="no"?><!DOCTYPE svg PUBLIC "-//W3C//DTD SVG 1.1//EN" "http://www.w3.org/Graphics/SVG/1.1/DTD/svg11.dtd"><svg t="1597522853391" viewBox="0 0 1280 1024" version="1.1" xmlns="http://www.w3.org/2000/svg" p-id="11139" data-spm-anchor-id="a313x.7781069.0.i1" xmlns:xlink="http://www.w3.org/1999/xlink"><defs><style type="text/css"></style></defs><path d="M909.8 256h-160c-30.6 0-45.8 36.8-24.2 58.6l47 44.2-141.8 141.8c-8.8 8.8-8.8 23.4 0 32.2l36.2 36.2c8.8 8.8 23.4 8.8 32.2 0l141.8-141.8 44.4 47.2c21.6 21.6 58.4 6.2 58.4-24.2v-160c0.2-19-15-34.2-34-34.2zM592 960V672c0-35.4-28.6-64-64-64H144c-35.4 0-64 28.6-64 64v288c0 35.4 28.6 64 64 64h384c35.4 0 64-28.6 64-64z m576-576h-64c-17.6 0-32 14.4-32 32v64c0 17.6 14.4 32 32 32h64c17.6 0 32-14.4 32-32v-64c0-17.6-14.4-32-32-32zM784 768h-64c-17.6 0-32 14.4-32 32v64c0 17.6 14.4 32 32 32h64c17.6 0 32-14.4 32-32v-64c0-17.6-14.4-32-32-32z m192 0h-64c-17.6 0-32 14.4-32 32v64c0 17.6 14.4 32 32 32h64c17.6 0 32-14.4 32-32v-64c0-17.6-14.4-32-32-32z m192 0h-64c-17.6 0-32 14.4-32 32v64c0 17.6 14.4 32 32 32h64c17.6 0 32-14.4 32-32v-64c0-17.6-14.4-32-32-32z m0-192h-64c-17.6 0-32 14.4-32 32v64c0 17.6 14.4 32 32 32h64c17.6 0 32-14.4 32-32v-64c0-17.6-14.4-32-32-32z m0-384h-64c-17.6 0-32 14.4-32 32v64c0 17.6 14.4 32 32 32h64c17.6 0 32-14.4 32-32v-64c0-17.6-14.4-32-32-32zM784 0h-64c-17.6 0-32 14.4-32 32v64c0 17.6 14.4 32 32 32h64c17.6 0 32-14.4 32-32V32c0-17.6-14.4-32-32-32z m192 0h-64c-17.6 0-32 14.4-32 32v64c0 17.6 14.4 32 32 32h64c17.6 0 32-14.4 32-32V32c0-17.6-14.4-32-32-32z m192 0h-64c-17.6 0-32 14.4-32 32v64c0 17.6 14.4 32 32 32h64c17.6 0 32-14.4 32-32V32c0-17.6-14.4-32-32-32zM400 384h-64c-17.6 0-32 14.4-32 32v64c0 17.6 14.4 32 32 32h64c17.6 0 32-14.4 32-32v-64c0-17.6-14.4-32-32-32z m0-192h-64c-17.6 0-32 14.4-32 32v64c0 17.6 14.4 32 32 32h64c17.6 0 32-14.4 32-32v-64c0-17.6-14.4-32-32-32z m0-192h-64c-17.6 0-32 14.4-32 32v64c0 17.6 14.4 32 32 32h64c17.6 0 32-14.4 32-32V32c0-17.6-14.4-32-32-32z m192 0h-64c-17.6 0-32 14.4-32 32v64c0 17.6 14.4 32 32 32h64c17.6 0 32-14.4 32-32V32c0-17.6-14.4-32-32-32z" p-id="11140" data-spm-anchor-id="a313x.7781069.0.i0" class="" fill="#999999"></path></svg>